<svg xmlns="http://www.w3.org/2000/svg" width="1200" height="800" viewBox="0 0 1200 800">
  <!-- Background -->
  <rect width="1200" height="800" fill="#E8E6E1"/>
  
  <!-- Parks/Green Spaces -->
  <ellipse cx="200" cy="150" rx="120" ry="90" fill="#C4D4B8" opacity="0.6"/>
  <ellipse cx="950" cy="600" rx="140" ry="110" fill="#C4D4B8" opacity="0.6"/>
  
  <!-- Major Roads -->
  <rect x="0" y="390" width="1200" height="20" fill="#B8B5AB"/>
  <rect x="490" y="0" width="20" height="800" fill="#B8B5AB"/>
  <rect x="150" y="0" width="12" height="800" fill="#CAC7BD"/>
  <rect x="800" y="0" width="12" height="800" fill="#CAC7BD"/>
  <rect x="0" y="200" width="1200" height="12" fill="#CAC7BD"/>
  <rect x="0" y="600" width="1200" height="12" fill="#CAC7BD"/>
  
  <!-- Building Blocks -->
  <rect x="250" y="250" width="200" height="120" fill="#D4D2C8" opacity="0.7"/>
  <rect x="540" y="80" width="180" height="100" fill="#D4D2C8" opacity="0.7"/>
  <rect x="60" y="450" width="160" height="140" fill="#D4D2C8" opacity="0.7"/>
  <rect x="850" y="250" width="140" height="120" fill="#D4D2C8" opacity="0.7"/>
  <rect x="550" y="450" width="190" height="130" fill="#D4D2C8" opacity="0.7"/>
  <rect x="300" y="650" width="150" height="100" fill="#D4D2C8" opacity="0.7"/>
  <rect x="850" y="680" width="120" height="90" fill="#D4D2C8" opacity="0.7"/>
  
  <!-- Smaller blocks -->
  <rect x="70" y="250" width="80" height="60" fill="#D4D2C8" opacity="0.5"/>
  <rect x="760" y="100" width="90" height="70" fill="#D4D2C8" opacity="0.5"/>
  <rect x="260" y="470" width="70" height="90" fill="#D4D2C8" opacity="0.5"/>
  <rect x="780" y="480" width="60" height="80" fill="#D4D2C8" opacity="0.5"/>
  
  <!-- Center marker area (indicating property location) -->
  <circle cx="600" cy="400" r="30" fill="#6B7F5E" opacity="0.15"/>
</svg>
